<?xml version="1.0" encoding="utf-8"?>
<!-- Generator: Adobe Illustrator 28.0.0, SVG Export Plug-In . SVG Version: 6.00 Build 0)  -->
<svg version="1.1" id="Camada_1" xmlns="http://www.w3.org/2000/svg" xmlns:xlink="http://www.w3.org/1999/xlink" x="0px" y="0px"
	 viewBox="0 0 724 724" style="enable-background:new 0 0 724 724;" xml:space="preserve">
<style type="text/css">
	.st0{fill:#FFFFFF;}
	.st1{fill:#662D91;}
	.st2{fill:#B396C8;}
</style>
<g>
	<g>
		<path class="st0" d="M362,714c-94,0-182.4-36.6-248.9-103.1C46.6,544.4,10,456,10,362c0-94,36.6-182.4,103.1-248.9
			C179.6,46.6,268,10,362,10c94,0,182.4,36.6,248.9,103.1C677.4,179.6,714,268,714,362s-36.6,182.4-103.1,248.9S456,714,362,714z"/>
		<path d="M362,20c46.2,0,91,9,133.1,26.9c40.7,17.2,77.3,41.9,108.7,73.3c31.4,31.4,56.1,68,73.3,108.7C695,271,704,315.8,704,362
			s-9,91-26.9,133.1c-17.2,40.7-41.9,77.3-73.3,108.7s-68,56.1-108.7,73.3C453,695,408.2,704,362,704s-91-9-133.1-26.9
			c-40.7-17.2-77.3-41.9-108.7-73.3c-31.4-31.4-56.1-68-73.3-108.7C29,453,20,408.2,20,362c0-46.2,9-91,26.9-133.1
			c17.2-40.7,41.9-77.3,73.3-108.7c31.4-31.4,68-56.1,108.7-73.3C271,29,315.8,20,362,20 M362,0C162.1,0,0,162.1,0,362
			s162.1,362,362,362s362-162.1,362-362S561.9,0,362,0L362,0z"/>
	</g>
	<path class="st1" d="M139.1,293.9v60.9h171.1v52H139.1v74.9H77.5V242.2h253.2v51.7H139.1z"/>
	<path class="st2" d="M405.6,399.3c0,25.3,20.5,37,98.5,37c64.7,0,84.2-7.2,84.2-26c0-19.8-13.7-23.3-91.4-27
		c-104.4-4.8-145.8-21.2-145.8-74.9c0-52.7,53.7-69.5,143.4-69.5c90.3,0,145.1,22.6,145.1,81.8h-61.6c0-26.3-26.3-32.8-90.3-32.8
		c-60.6,0-74.9,5.8-74.9,23.6c0,18.5,14.4,21.9,84.2,26c94.4,5.1,152.9,10.3,152.9,70.8c0,64-60.6,77-149.2,77
		c-98.2,0-156.7-16.8-156.7-85.9H405.6z"/>
</g>
</svg>
