<?xml version="1.0" encoding="utf-8"?>
<!-- Generator: Adobe Illustrator 28.0.0, SVG Export Plug-In . SVG Version: 6.00 Build 0)  -->
<svg version="1.1" id="Camada_1" xmlns="http://www.w3.org/2000/svg" xmlns:xlink="http://www.w3.org/1999/xlink" x="0px" y="0px"
	 viewBox="0 0 1812.1 700.6" style="enable-background:new 0 0 1812.1 700.6;" xml:space="preserve">
<style type="text/css">
	.st0{fill:#FFFFFF;}
	.st1{fill:#B396C8;}
	.st2{fill:#662D91;}
</style>
<g>
	<g>
		<path class="st0" d="M44.1,39.5v43.7h122.6v37.3H44.1v53.7H0V2.5h181.5v37H44.1z"/>
		<path class="st0" d="M240.1,174.1H196V2.5h44.1V174.1z"/>
		<path class="st0" d="M303.9,39.5v43.7h122.6v37.3H303.9v53.7h-44.1V2.5h181.5v37H303.9z"/>
		<path class="st0" d="M590.4,137.6H487.6l-18.4,36.5h-48.6L509.2,2.5h59.6l88.8,171.7h-48.8L590.4,137.6z M573.9,104.7l-34.8-69.7
			L504,104.7H573.9z"/>
		<path class="st0" d="M830,115c0,18.1,14.7,26.5,70.6,26.5c46.4,0,60.3-5.2,60.3-18.6c0-14.2-9.8-16.7-65.5-19.4
			C820.7,100.1,791,88.3,791,49.8C791,12,829.5,0,893.8,0c64.8,0,104,16.2,104,58.6h-44.1c0-18.9-18.9-23.5-64.8-23.5
			c-43.4,0-53.7,4.2-53.7,16.9c0,13.2,10.3,15.7,60.3,18.6c67.7,3.7,109.6,7.4,109.6,50.8c0,45.9-43.4,55.2-106.9,55.2
			c-70.4,0-112.3-12-112.3-61.6H830z"/>
		<path class="st0" d="M1216.1,39.5h-83.4v134.7h-44.1V39.5h-83.4v-37h210.9V39.5z"/>
		<path class="st0" d="M1347.3,137.6h-102.8l-18.4,36.5h-48.6l88.5-171.7h59.6l88.8,171.7h-48.8L1347.3,137.6z M1330.8,104.7
			L1296,35.1l-35.1,69.7H1330.8z"/>
		<path class="st0" d="M1587.4,39.5H1504v134.7h-44.1V39.5h-83.4v-37h210.9V39.5z"/>
		<path class="st0" d="M1637,115c0,18.1,14.7,26.5,70.6,26.5c46.4,0,60.3-5.2,60.3-18.6c0-14.2-9.8-16.7-65.5-19.4
			c-74.8-3.4-104.5-15.2-104.5-53.7C1598,12,1636.5,0,1700.7,0c64.8,0,104,16.2,104,58.6h-44.1c0-18.9-18.9-23.5-64.8-23.5
			c-43.4,0-53.7,4.2-53.7,16.9c0,13.2,10.3,15.7,60.3,18.6c67.7,3.7,109.6,7.4,109.6,50.8c0,45.9-43.4,55.2-106.9,55.2
			c-70.4,0-112.3-12-112.3-61.6H1637z"/>
	</g>
	<g>
		<g>
			<polygon class="st1" points="44.1,301.5 44.1,345.1 166.8,345.1 166.8,382.4 44.1,382.4 44.1,436.1 0,436.1 0,264.5 181.5,264.5 
				181.5,301.5 			"/>
		</g>
		<g>
			<rect x="196" y="264.5" class="st1" width="44.1" height="171.7"/>
		</g>
		<g>
			<polygon class="st1" points="303.9,301.5 303.9,345.1 426.5,345.1 426.5,382.4 303.9,382.4 303.9,436.1 259.7,436.1 259.7,264.5 
				441.2,264.5 441.2,301.5 			"/>
		</g>
		<g>
			<path class="st1" d="M573.9,366.7l-34.8-69.7L504,366.7H573.9z M590.4,399.6H487.6l-18.4,36.5h-48.6l88.5-171.7h59.6l88.8,171.7
				h-48.8L590.4,399.6z"/>
		</g>
		<g>
			<path class="st1" d="M830,377c0,18.1,14.7,26.5,70.6,26.5c46.4,0,60.3-5.2,60.3-18.6c0-14.2-9.8-16.7-65.5-19.4
				c-74.8-3.4-104.5-15.2-104.5-53.7c0-37.8,38.5-49.8,102.8-49.8c64.8,0,104,16.2,104,58.6h-44.1c0-18.9-18.9-23.5-64.8-23.5
				c-43.4,0-53.7,4.2-53.7,16.9c0,13.2,10.3,15.8,60.3,18.6c67.7,3.8,109.6,7.4,109.6,50.8c0,45.9-43.4,55.2-106.9,55.2
				c-70.4,0-112.3-12-112.3-61.6H830z"/>
		</g>
		<g>
			<polygon class="st1" points="1216.1,301.5 1132.7,301.5 1132.7,436.1 1088.5,436.1 1088.5,301.5 1005.1,301.5 1005.1,264.5 
				1216.1,264.5 			"/>
		</g>
		<g>
			<path class="st1" d="M1330.8,366.7l-34.8-69.7l-35.1,69.7H1330.8z M1347.3,399.6h-102.8l-18.4,36.5h-48.6l88.5-171.7h59.6
				l88.8,171.7h-48.8L1347.3,399.6z"/>
		</g>
		<g>
			<polygon class="st1" points="1587.4,301.5 1504,301.5 1504,436.1 1459.9,436.1 1459.9,301.5 1376.5,301.5 1376.5,264.5 
				1587.4,264.5 			"/>
		</g>
		<g>
			<path class="st1" d="M1637,377c0,18.1,14.7,26.5,70.6,26.5c46.4,0,60.3-5.2,60.3-18.6c0-14.2-9.8-16.7-65.5-19.4
				c-74.8-3.4-104.5-15.2-104.5-53.7c0-37.8,38.5-49.8,102.8-49.8c64.8,0,104,16.2,104,58.6h-44.1c0-18.9-18.9-23.5-64.8-23.5
				c-43.4,0-53.7,4.2-53.7,16.9c0,13.2,10.3,15.8,60.3,18.6c67.7,3.8,109.6,7.4,109.6,50.8c0,45.9-43.4,55.2-106.9,55.2
				c-70.4,0-112.3-12-112.3-61.6H1637z"/>
		</g>
	</g>
	<g>
		<path class="st2" d="M44.1,563.5v43.7h122.6v37.3H44.1v53.7H0V526.5h181.5v37H44.1z"/>
		<path class="st2" d="M240.1,698.1H196V526.5h44.1V698.1z"/>
		<path class="st2" d="M303.9,563.5v43.7h122.6v37.3H303.9v53.7h-44.1V526.5h181.5v37H303.9z"/>
		<path class="st2" d="M590.4,661.6H487.6l-18.4,36.5h-48.6l88.5-171.7h59.6l88.8,171.7h-48.8L590.4,661.6z M573.9,628.7l-34.8-69.7
			L504,628.7H573.9z"/>
		<path class="st2" d="M830,639c0,18.1,14.7,26.5,70.6,26.5c46.4,0,60.3-5.2,60.3-18.6c0-14.2-9.8-16.7-65.5-19.4
			c-74.8-3.4-104.5-15.2-104.5-53.7c0-37.8,38.5-49.8,102.8-49.8c64.8,0,104,16.2,104,58.6h-44.1c0-18.9-18.9-23.5-64.8-23.5
			c-43.4,0-53.7,4.2-53.7,16.9c0,13.2,10.3,15.7,60.3,18.6c67.7,3.7,109.6,7.4,109.6,50.8c0,45.9-43.4,55.2-106.9,55.2
			c-70.4,0-112.3-12-112.3-61.6H830z"/>
		<path class="st2" d="M1216.1,563.5h-83.4v134.7h-44.1V563.5h-83.4v-37h210.9V563.5z"/>
		<path class="st2" d="M1347.3,661.6h-102.8l-18.4,36.5h-48.6l88.5-171.7h59.6l88.8,171.7h-48.8L1347.3,661.6z M1330.8,628.7
			l-34.8-69.7l-35.1,69.7H1330.8z"/>
		<path class="st2" d="M1587.4,563.5H1504v134.7h-44.1V563.5h-83.4v-37h210.9V563.5z"/>
		<path class="st2" d="M1637,639c0,18.1,14.7,26.5,70.6,26.5c46.4,0,60.3-5.2,60.3-18.6c0-14.2-9.8-16.7-65.5-19.4
			c-74.8-3.4-104.5-15.2-104.5-53.7c0-37.8,38.5-49.8,102.8-49.8c64.8,0,104,16.2,104,58.6h-44.1c0-18.9-18.9-23.5-64.8-23.5
			c-43.4,0-53.7,4.2-53.7,16.9c0,13.2,10.3,15.7,60.3,18.6c67.7,3.7,109.6,7.4,109.6,50.8c0,45.9-43.4,55.2-106.9,55.2
			c-70.4,0-112.3-12-112.3-61.6H1637z"/>
	</g>
</g>
</svg>
