<?xml version="1.0" encoding="utf-8"?>
<!-- Generator: Adobe Illustrator 28.0.0, SVG Export Plug-In . SVG Version: 6.00 Build 0)  -->
<svg version="1.1" id="Camada_1" xmlns="http://www.w3.org/2000/svg" xmlns:xlink="http://www.w3.org/1999/xlink" x="0px" y="0px"
	 viewBox="0 0 2000 2000" style="enable-background:new 0 0 2000 2000;" xml:space="preserve">
<style type="text/css">
	.st0{fill:#39B54A;}
	.st1{fill:#FFFFFF;}
</style>
<g>
	<path class="st0" d="M1716.3,1861H283.7c-79.6,0-144.7-65.1-144.7-144.7V283.7c0-79.6,65.1-144.7,144.7-144.7h1432.7
		c79.6,0,144.7,65.1,144.7,144.7v1432.7C1861,1795.9,1795.9,1861,1716.3,1861z"/>
</g>
<g>
	<path class="st1" d="M1132.8,994.2c0,176.3-123.7,302.1-296.7,302.1c-51.2,0-98-13.5-137.9-37.6v222.8H505.4V711.3H638l24.4,45
		c46.5-40.2,106.4-63.5,173.7-63.5C1009.1,692.7,1132.8,817.9,1132.8,994.2z M936.6,994.2c0-74.3-53.7-129.5-126.7-129.5
		c-73,0-126.7,55.2-126.7,129.5c0,74.3,53.7,129.5,126.7,129.5C882.5,1123.7,936.6,1068.6,936.6,994.2z"/>
	<path class="st1" d="M1482.9,580.3v696.9h-187.7V738.2h-103.3V580.3H1482.9z"/>
</g>
</svg>
