<?xml version="1.0" encoding="utf-8"?>
<!-- Generator: Adobe Illustrator 28.0.0, SVG Export Plug-In . SVG Version: 6.00 Build 0)  -->
<svg version="1.1" id="Camada_1" xmlns="http://www.w3.org/2000/svg" xmlns:xlink="http://www.w3.org/1999/xlink" x="0px" y="0px"
	 viewBox="0 0 2000 2000" style="enable-background:new 0 0 2000 2000;" xml:space="preserve">
<style type="text/css">
	.st0{fill:#FF1D25;}
	.st1{fill:#FFFFFF;}
</style>
<g>
	<g>
		<path class="st0" d="M1716.3,1861H283.7c-79.6,0-144.7-65.1-144.7-144.7V283.7c0-79.6,65.1-144.7,144.7-144.7h1432.7
			c79.6,0,144.7,65.1,144.7,144.7v1432.7C1861,1795.9,1795.9,1861,1716.3,1861z"/>
	</g>
	<g>
		<path class="st1" d="M1034.3,994.2c0,176.3-123.7,302.1-296.7,302.1c-51.2,0-98-13.5-137.9-37.6v222.8H406.9V711.3h132.6l24.4,45
			c46.5-40.2,106.4-63.5,173.7-63.5C910.6,692.7,1034.3,817.9,1034.3,994.2z M838.1,994.2c0-74.3-53.7-129.5-126.7-129.5
			s-126.7,55.2-126.7,129.5c0,74.3,53.7,129.5,126.7,129.5C784,1123.7,838.1,1068.6,838.1,994.2z"/>
		<path class="st1" d="M1608.8,1111.9v165.3h-518.3v-42.4c280.4-330.7,319-384.1,319-444c0-37.8-24.9-63.1-60.6-63.1
			c-39.1,0-63,26.4-63,68.3v13.5h-184.2v-12.9c0-140.9,92.4-234,244.9-234c147.8,0,249.9,90.9,249.9,221.7
			c0,87.7-32.4,155-181.5,327.7H1608.8z"/>
	</g>
</g>
</svg>
